<svg id="Flat" xmlns="http://www.w3.org/2000/svg" viewBox="0 0 256 256"><path d="M228 128a100 100 0 1 0-167.29 73.91 3.97 3.97 0 0 0 .842.75 99.794 99.794 0 0 0 132.898-.001 3.966 3.966 0 0 0 .838-.748A99.763 99.763 0 0 0 228 128Zm-192 0a92 92 0 1 1 157.171 64.872 75.616 75.616 0 0 0-44.507-34.04 44 44 0 1 0-41.328 0 75.618 75.618 0 0 0-44.507 34.04A91.708 91.708 0 0 1 36 128Zm92 28a36 36 0 1 1 36-36 36.04 36.04 0 0 1-36 36Zm-59.135 42.417a68.01 68.01 0 0 1 118.27 0 91.804 91.804 0 0 1-118.27 0Z"/></svg>